/* XPM */
static char *result[] = {
/* columns rows colors chars-per-pixel */
"64 64 186 2 ",
"   c #1B1A1A",
".  c #2B1B1B",
"X  c #271B1A",
"o  c #321C1C",
"O  c #3D1C1D",
"+  c #3C201F",
"@  c #272928",
"#  c #262827",
"$  c #343533",
"%  c #3B3C3C",
"&  c #3D3736",
"*  c #3D3D2C",
"=  c #451F1F",
"-  c #491E21",
";  c #691F29",
":  c #452121",
">  c #4D2222",
",  c #5B2526",
"<  c #562525",
"1  c #652528",
"2  c #712C2C",
"3  c #74292B",
"4  c #6F3A3A",
"5  c #53533C",
"6  c #7A763B",
"7  c #3F4040",
"8  c #4B4C4C",
"9  c #444546",
"0  c #535446",
"q  c #525354",
"w  c #5B5B5C",
"e  c #585857",
"r  c #564B4D",
"t  c #715051",
"y  c #6A694E",
"u  c #636364",
"i  c #6B6B6C",
"p  c #6A6B66",
"a  c #6E6E70",
"s  c #737474",
"d  c #777779",
"f  c #79797B",
"g  c #83262E",
"h  c #8A2632",
"j  c #9C2536",
"k  c #982B35",
"l  c #853133",
"z  c #8C3333",
"x  c #9B3737",
"c  c #9F3939",
"v  c #A42738",
"b  c #A42939",
"n  c #AD2A3C",
"m  c #A22A36",
"M  c #B32D3C",
"N  c #AC363A",
"B  c #A63739",
"V  c #B3333C",
"C  c #BB323E",
"Z  c #B73D3E",
"A  c #C3363F",
"S  c #CB3C3F",
"D  c #84403F",
"F  c #D3572C",
"G  c #D14A2F",
"H  c #D5662E",
"J  c #D8732F",
"K  c #DB7D32",
"L  c #A93848",
"P  c #B83742",
"I  c #C53C42",
"U  c #CB3C41",
"Y  c #C23943",
"T  c #BC4545",
"R  c #B04D54",
"E  c #BF6F7B",
"W  c #B8737E",
"Q  c #C34242",
"!  c #CC4344",
"~  c #D24545",
"^  c #D24D4D",
"/  c #D3595A",
"(  c #CA656C",
")  c #D46869",
"_  c #CD797C",
"`  c #D87575",
"'  c #DD8532",
"]  c #DE8B33",
"[  c #DF9135",
"{  c #E29A37",
"}  c #E39E39",
"|  c #E09436",
" . c #E5A33A",
".. c #E7AA3C",
"X. c #E8AD3D",
"o. c #EAB33E",
"O. c #BEB75A",
"+. c #C0B547",
"@. c #EBB641",
"#. c #EDBC41",
"$. c #EFC144",
"%. c #F0C544",
"&. c #F2CB46",
"*. c #F2CB48",
"=. c #F5D449",
"-. c #F7DB4B",
";. c #F8DE4D",
":. c #F9E34E",
">. c #F9E552",
",. c #FAE954",
"<. c #FBEB5A",
"1. c #FBEE64",
"2. c #FBEF6A",
"3. c #FBF06E",
"4. c #FBF174",
"5. c #FBF17A",
"6. c #F3E971",
"7. c #D47F80",
"8. c #848586",
"9. c #88898A",
"0. c #908383",
"q. c #A09F92",
"w. c #BE8D93",
"e. c #ABAA9B",
"r. c #9FA0A0",
"t. c #A4A4A5",
"y. c #ABAAAA",
"u. c #B7B8B8",
"i. c #BBBBBC",
"p. c #B7B2B3",
"a. c #D79698",
"s. c #E39393",
"d. c #D7ADAE",
"f. c #D6AFB2",
"g. c #D2BABE",
"h. c #EAADAD",
"j. c #ECE58C",
"k. c #FCF283",
"l. c #FCF38C",
"z. c #FCF494",
"x. c #FCF59B",
"c. c #D0CFBC",
"v. c #CECDBA",
"b. c #FDF6A3",
"n. c #FDF6AC",
"m. c #FEF7B4",
"M. c #FEF8BC",
"N. c #FBF5B6",
"B. c #F0EAAF",
"V. c #BACFDD",
"C. c #9DD1F4",
"Z. c #9BD3F8",
"A. c #ABCEE5",
"S. c #B1CEE2",
"D. c #C3C3C4",
"F. c #CBCBCC",
"G. c #D7C3C5",
"H. c #CFCFD1",
"J. c #C0CFDA",
"K. c #D9CFD1",
"L. c #C4D1DA",
"P. c #D3D3D5",
"I. c #D6D6D8",
"U. c #D9D7D9",
"Y. c #D7D9DB",
"T. c #DADADC",
"R. c #D9D0D3",
"E. c #E8D7D8",
"W. c #F3D7D7",
"Q. c #F1D8D8",
"!. c #FEF9C4",
"~. c #FEF9CB",
"^. c #EDECD7",
"/. c #FEFAD4",
"(. c #FEFBDC",
"). c #DEDFE1",
"_. c #E3E4E6",
"`. c #ECECED",
"'. c #E7E6E7",
"]. c #F1E7E7",
"[. c #FEFCE5",
"{. c #FFFFE8",
"}. c #EFEFF0",
"|. c #F1F1F2",
" X c #FBF6F6",
".X c None",
/* pixels */
".X.X.X.X.X.X.X.X.X.X.X.X.X.X.X.X.X.X.X.X.X.X.X.X.X.X.X.X.X.X.X.X.X.X.X.X.X.X.X.X.X.X.X.X.X.X.X.X.X.X.X.X.X.X.X.X.X.X.X.X.X.X.X.X",
".X.X.X.X.X.X.X.X.X.X.X.X.X.X.X.X.X.X.X.X.X.X.X.X.X.X.X.X.X.X.X.X.X.X.X.X.X.X.X.X.X.X.X.X.X.X.X.X.X.X.X.X.X.X.X.X.X.X.X.Xo > o .X",
".X.X.X.X.X.X.X.X.X.X.X.X.X.X.X.X.X.X.X.X.X.X.X.X.X.X.X.X.X.X.X.X.X.X.X.X.X.X.X.X.X.X.X.X.X.X.X.X.X.X.X.X.X. O > 1 4 D l x L : .X",
".X.X.X.X.X.X.X.X.X.X.X.X.X.X.X.X.X.X.X.X.X.X.X.X.X.X.X.X.X.X.X.X.X.X.X.X.X.X.X.X.X.X.X.X.X.X.X.X.X.X@ e t B R ` s.a.) P C B . .X",
".X.X.X.X.X.X.X.X.X.X.X.X.X.X.X.X.X.X.X.X.X.X.X.X.X.X.X.X.X.X.X.X.X.X.X.X.X.X.X.X.X.X.X.X.X.X.X.X@ s i.E.s.h.W.f._ L M C ! l .X.X",
".X.X.X.X.X.X.X.X.X.X.X.X.X.X.X.X.X.X.X.X.X.X.X.X.X.X.X.X.X.X.X.X.X.X.X.X.X.X.X.X.X.X.X.X.X.X.Xp i.|.|. X XE.W L v M M A Y 3 .X.X",
".X.X.X.X.X.X.X.X.X.X.X.X.X.X.X.X.X.X.X.X.X.X.X.X.X.X.X.X.X.X.X.X.X.X.X.X.X.X.X.X.X.X.X.X.X8 y.`.`.).T.|.h.L j b n M C A S 1 .X.X",
".X.X.X.X.X.X.X.X.X.X.X.X.X.X.X.X.X.X.X.X.X.X.X.X.X.X.X.X.X.X.X.X.X.X.X.X.X.X.X.X.X.X.X.Xd T.}.).T.Y.P.'.h.C b M M C A I S < .X.X",
".X.X.X.X.X.X.X.X.X.X.X.X.X.X.X.X.X.X.X.X.X.X.X.X.X.X.X.X.X.X.X.X.X.X.X.X.X.X.X.X.X.X% t.`._.T.U.P.Y.T.).].` C C C A U U S = .X.X",
".X.X.X.X.X.X.X.X.X.X.X.X.X.X.X.X.X.X.X.X.X.X.X.X.X.X.X.X.X.X.X.X.X.X.X.X.X.X.X.X.X8 i.`.).T.I.P.T.T.T.T._.W.) I A S U U Z o .X.X",
".X.X.X.X.X.X.X.X.X.X.X.X.X.X.X.X.X.X.X.X.X.X.X.X.X.X.X.X.X.X.X.X.X.X.X.X.X.X.X.X8 F.`.T.T.I.I.T.T.T.T.T.T.'.Q.` ! S S ~ z .X.X.X",
".X.X.X.X.X.X.X.X.X.X.X.X.X.X.X.X.X.X.X.X.X.X.X.X.X.X.X.X.X.X.X.X.X.X.X.X.X.X.X% D.'.T.Y.P.I.T.T.T.T.T.T.T.T._.].h.` / ) 4 .X.X.X",
".X.X.X.X.X.X.X.X.X.X.X.X.X.X.X.X.X.X.X.X.X.X.X.X.X.X.X.X.X.X.X.X.X.X.X.X.X.X@ r._.T.T.P.I.T.T.T.T.T.T.T.T.T.T.)._.'.E.p.% .X.X.X",
".X.X.X.X.X.X.X.X.X.X.X.X.X.X.X.X.X.X.X.X.X.X.X.X.X.X.X.X.X.X.X.X.X.X.X.X.X.X8.T.T.T.P.I.T.I.U.T.T.T.T.T.T.T.T.T.P.T.D.s .X.X.X.X",
".X.X.X.X.X.X.X.X.X.X.X.X.X.X.X.X.X.X.X.X.X.X.X.X.X.X.X.X.X.X.X.X.X.X.X.X.Xw P.I.I.P.Y.P.H.P.F.H.I.T.T.T.T.T.T.P.T.P.y.7 .X.X.X.X",
".X.X.X.X.X.X.X.X.X.X.X.X.X.X.X.X.X.X.X.X.X.X.X.X.X.X.X.X.X.X.X.X.X.X.X.X% u.Y.I.H.I.P.H.P.P.I.P.P.T.T.T.T.T.T.P.T.D.d .X.X.X.X.X",
".X.X.X.X.X.X.X.X.X.X.X.X.X.X.X.X.X.X.X.X.X.X.X.X.X.X.X.X.X.X.X.X.X.X.X. 0.E.P.P.P.F.P.P.J.A.A.P.P.P.T.T.T.I.P.T.P.t.% .X.X.X.X.X",
".X.X.X.X.X.X.X.X.X.X.X.X.X.X.X.X.X.X.X.X.X.X.X.X.X.X.X.X.X.X.Xo : 1 3 L _ R.P.P.H.F.T.P.S.Z.Z.V.P.H.U.T.T.P.T.T.D.u .X.X.X.X.X.X",
".X.X.X.X.X.X.X.X.X.X.X.X.X.X.X.X.X.X.X.X.X.X.X.X.X.XX + , 2 z N T ! U ^ d.Y.P.P.F.P.T.U.V.C.C.V.P.P.T.T.I.I.).H.8.@ .X.X.X.X.X.X",
".X.X.X.X.X.X.X.X.X.X.X.X.X.X.X.X.X.X.X.X.X.X.X.X, l B P Q ^ ~ ^ U ^ U O.I.P.T.F.P.T.P.T.P.L.V.P.P.F.T.P.Y.T.P.t.% .X.X.X.X.X.X.X",
".X.X.X.X.X.X.X.X.X.X.X.X.X.X.X.X.X.X.X.X.X.X.X1 Q ~ ~ ~ U U Y C P I / G.I.Y.P.P.U.P.T.P.Y.Y.U.I.P.P.P.U.T.T.i.q .X.X.X.X.X.X.X.X",
".X.X.X.X.X.X.X.X.X.X.X.X.X.X.X.X.X.X.X.X.X.X= B Z U U P P n n n P I a.).P.P.F.T.T.P.P.T.P.I.T.H.P.P.T.T.I.v.u .X.X.X.X.X.X.X.X.X",
".X.X.X.X.X.X.X.X.X.X.X.X.X.X.X.X.X.X.X.X.X.XX 1 B N n n n n n n C ( K.P.I.P.I.T.T.T.U.P.H.H.F.P.P.T.T.T.D.i .X.X.X.X.X.X.X.X.X.X",
".X.X.X.X.X.X.X.X.X.X.X.X.X.X.X.X.X.X.X.X.X.X.X.XO g n v v n n n Y f.).P.I.P.T.T.T.T.T.P.F.F.P.P.P.P.T.u.w .X.X.X.X.X.X.X.X.X.X.X",
".X.X.X.X.X.X.X.X.X.X.X.X.X.X.X.X.X.X.X.X.X.X.X.X.X.X, k m v n n 7.P.P.).P.P.).U.T.T.T.H.H.P.P.I.P.P.t.8 .X.X.X.X.X.X.X.X.X.X.X.X",
".X.X.X.X.X.X.X.X.X.X.X.X.X.X.X.X.X.X.X.X.X.X.X.X.X.X.Xo 3 m m R G.I.P.P.U.H.P.).Y.I.H.P.I.P.I.I.D.8.$ .X.X.X.X.X.X.X.X.X.X.X.X.X",
".X.X.X.X.X.X.X.X.X.X.X.X.X.X.X.X.X.X.X.X.X.X.X.X.X.X.X.X.X= h w.).P.).).I.P.H.H.H.P.I.P.I.U.G.y.w # .X.X.X.X.X.X.X.X.X.X.X.X.X.X",
".X.X.X.X.X.X.X.X.X.X.X.X.X.X.X.X.X.X.X.X.X.X.X.X.X.X.X.X  $ u F.P.P.).I.).).P.).U.P.I.U.K.a.R % .X.X.X.X.X.X.X.X.X.X.X.X.X.X.X.X",
".X.X.X.X.X.X.X.X.X.X.X.X.X.X.X.X.X.X.X.X.X.X.X$.=.<.+.% q a 9.D.P.).P.).P.).).P.P.Y.U.f.) ~ z .X.X.X.X.X.X.X.X.X.X.X.X.X.X.X.X.X",
".X.X.X.X.X.X.X.X.X.X.X.X.X.X.X.X.X.X.X.X|  .#.=.<.4.y 8 i d 8.i.P.I.).).).P.P.P.U.G.7.^ ~ ~ 2 .X.X.X.X.X.X.X.X.X.X.X.X.X.X.X.X.X",
".X.X.X.X.X.X.X.X.X.X.X.X.X.X.X.X.X.X.X.X .#.=.<.5.j.0 w a d f t.F.).).P.P.P.).K.a./ I Y ! ! , .X.X.X.X.X.X.X.X.X.X.X.X.X.X.X.X.X",
".X.X.X.X.X.X.X.X.X.X.X.X.X.X.X.X.X.X.X .#.=.,.5.x.B.0 w i f f 8.y.F.P.P.).P.f.( A C M P Q Q : .X.X.X.X.X.X.X.X.X.X.X.X.X.X.X.X.X",
".X.X.X.X.X.X.X.X.X.X.X.X.X.X.X.X.X.X} o.&.>.4.z.M./.p q u d d d 9.t.u.D.D.W L n n n n n U P o .X.X.X.X.X.X.X.X.X.X.X.X.X.X.X.X.X",
".X.X.X.X.X.X.X.X.X.X.X.X.X.X.X.X.X} o.&.>.4.l.m./.{.e.9 u i f d f f 8.9.r g v n n n n P ! c .X.X.X.X.X.X.X.X.X.X.X.X.X.X.X.X.X.X",
".X.X.X.X.X.X.X.X.X.X.X.X.X.X.X.X.XX.&.>.3.l.m./.[.{.^.w q u i d f d d u # O j v n n n C ~ z .X.X.X.X.X.X.X.X.X.X.X.X.X.X.X.X.X.X",
".X.X.X.X.X.X.X.X.X.X.X.X.X.X.X.XX.%.;.1.k.b.~.[.[.[.{.v.8 q u u i i u 9   .X; j n n n P ~ 2 .X.X.X.X.X.X.X.X.X.X.X.X.X.X.X.X.X.X",
".X.X.X.X.X.X.X.X.X.X.X.X.X.X.X.X#.-.<.5.x.!.(.[.[.[.[.[.v.e 9 q w e 9 * .X.Xo h j n n I ! , .X.X.X.X.X.X.X.X.X.X.X.X.X.X.X.X.X.X",
".X.X.X.X.X.X.X.X.X.X.X.X.X.X.X#.=.>.4.z.N.(.[.[.[.[.[.[.[.^.q.y 0 5 6 O..X.X.X- j v n I Q : .X.X.X.X.X.X.X.X.X.X.X.X.X.X.X.X.X.X",
".X.X.X.X.X.X.X.X.X.X.X.X.X.X.X&.:.2.l.n.~.[.[.[.[.[.[.[.[.[.(.N.j.6.<.;..X.X.X.X; v N ! Z + .X.X.X.X.X.X.X.X.X.X.X.X.X.X.X.X.X.X",
".X.X.X.X.X.X.X.X.X.X.X.X.X.X*.-.<.5.x.M.(.[.[.[.{.[.[.[.[./.m.z.4.>.=.#..X.X.X.Xo h V ~ x .X.X.X.X.X.X.X.X.X.X.X.X.X.X.X.X.X.X.X",
".X.X.X.X.X.X.X.X.X.X.X.X.X.X=.,.4.l.n.~.[.[.[.[.[.[.[.[.~.m.z.4.,.=.#. ..X.X.X.X.X, V B > .X.X.X.X.X.X.X.X.X.X.X.X.X.X.X.X.X.X.X",
".X.X.X.X.X.X.X.X.X.X.X.X.X.X;.1.5.x.m./.[.[.[.[.[.[.(.!.n.l.4.>.=.@. ..X.X.X.X.X.X.X2 - .X.X.X.X.X.X.X.X.X.X.X.X.X.X.X.X.X.X.X.X",
".X.X.X.X.X.X.X.X.X.X.X.X.X;.,.2.l.b.M./.[.[.[.[.[./.M.b.k.2.>.=.@. .] .X.X.X.X.X.X.X  .X.X.X.X.X.X.X.X.X.X.X.X.X.X.X.X.X.X.X.X.X",
".X.X.X.X.X.X.X.X.X.X.X.X.X:.1.5.z.n.!./.(.(.(./.!.n.x.k.1.>.*.#.} ] .X.X.X.X.X.X.X.X.X.X.X.X.X.X.X.X.X.X.X.X.X.X.X.X.X.X.X.X.X.X",
".X.X.X.X.X.X.X.X.X.X.X.X.X>.2.k.z.n.M.!.~.~.!.m.b.l.5.<.:.&.o.} ] K .X.X.X.X.X.X.X.X.X.X.X.X.X.X.X.X.X.X.X.X.X.X.X.X.X.X.X.X.X.X",
".X.X.X.X.X.X.X.X.X.X.X.X;.<.2.k.z.b.m.m.N.n.b.z.k.3.<.-.%.X.{ ] .X.X.X.X.X.X.X.X.X.X.X.X.X.X.X.X.X.X.X.X.X.X.X.X.X.X.X.X.X.X.X.X",
".X.X.X.X.X.X.X.X.X.X.X.X:.<.2.k.l.x.b.x.x.z.k.5.1.>.=.#...{ .X.X.X.X.X.X.X.X.X.X.X.X.X.X.X.X.X.X.X.X.X.X.X.X.X.X.X.X.X.X.X.X.X.X",
".X.X.X.X.X.X.X.X.X.X.X-.:.<.4.5.k.l.l.l.k.5.1.<.:.&.#...} .X.X.X.X.X.X.X.X.X.X.X.X.X.X.X.X.X.X.X.X.X.X.X.X.X.X.X.X.X.X.X.X.X.X.X",
".X.X.X.X.X.X.X.X.X.X.X=.>.<.1.4.5.5.5.4.2.<.>.=.%.@....X.X.X.X.X.X.X.X.X.X.X.X.X.X.X.X.X.X.X.X.X.X.X.X.X.X.X.X.X.X.X.X.X.X.X.X.X",
".X.X.X.X.X.X.X.X.X.X&.=.:.,.<.1.1.1.<.<.>.-.&.%..X.X.X.X.X.X.X.X.X.X.X.X.X.X.X.X.X.X.X.X.X.X.X.X.X.X.X.X.X.X.X.X.X.X.X.X.X.X.X.X",
".X.X.X.X.X.X.X.X.X#.$.=.;.:.,.,.,.,.>.-.=.&..X.X.X.X.X.X.X.X.X.X.X.X.X.X.X.X.X.X.X.X.X.X.X.X.X.X.X.X.X.X.X.X.X.X.X.X.X.X.X.X.X.X",
".X.X.X.X.X.X.X.X.X#.$.&.=.-.:.:.-.-.&.*..X.X.X.X.X.X.X.X.X.X.X.X.X.X.X.X.X.X.X.X.X.X.X.X.X.X.X.X.X.X.X.X.X.X.X.X.X.X.X.X.X.X.X.X",
".X.X.X.X.X.X.X.X..o.#.%.&.=.&.&.*.*..X.X.X.X.X.X.X.X.X.X.X.X.X.X.X.X.X.X.X.X.X.X.X.X.X.X.X.X.X.X.X.X.X.X.X.X.X.X.X.X.X.X.X.X.X.X",
".X.X.X.X.X.X.X.X .X.o.o.o.%.$.$..X.X.X.X.X.X.X.X.X.X.X.X.X.X.X.X.X.X.X.X.X.X.X.X.X.X.X.X.X.X.X.X.X.X.X.X.X.X.X.X.X.X.X.X.X.X.X.X",
".X.X.X.X.X.X.X| {  ...X.o.@..X.X.X.X.X.X.X.X.X.X.X.X.X.X.X.X.X.X.X.X.X.X.X.X.X.X.X.X.X.X.X.X.X.X.X.X.X.X.X.X.X.X.X.X.X.X.X.X.X.X",
".X.X.X.X.X.X' ] | { }  ..X.X.X.X.X.X.X.X.X.X.X.X.X.X.X.X.X.X.X.X.X.X.X.X.X.X.X.X.X.X.X.X.X.X.X.X.X.X.X.X.X.X.X.X.X.X.X.X.X.X.X.X",
".X.X.X.X.X.XK ' ] [ .X.X.X.X.X.X.X.X.X.X.X.X.X.X.X.X.X.X.X.X.X.X.X.X.X.X.X.X.X.X.X.X.X.X.X.X.X.X.X.X.X.X.X.X.X.X.X.X.X.X.X.X.X.X",
".X.X.X.X.XJ J K ' .X.X.X.X.X.X.X.X.X.X.X.X.X.X.X.X.X.X.X.X.X.X.X.X.X.X.X.X.X.X.X.X.X.X.X.X.X.X.X.X.X.X.X.X.X.X.X.X.X.X.X.X.X.X.X",
".X.X.X.XH H J .X.X.X.X.X.X.X.X.X.X.X.X.X.X.X.X.X.X.X.X.X.X.X.X.X.X.X.X.X.X.X.X.X.X.X.X.X.X.X.X.X.X.X.X.X.X.X.X.X.X.X.X.X.X.X.X.X",
".X.X.X.XF H .X.X.X.X.X.X.X.X.X.X.X.X.X.X.X.X.X.X.X.X.X.X.X.X.X.X.X.X.X.X.X.X.X.X.X.X.X.X.X.X.X.X.X.X.X.X.X.X.X.X.X.X.X.X.X.X.X.X",
".X.X.XF .X.X.X.X.X.X.X.X.X.X.X.X.X.X.X.X.X.X.X.X.X.X.X.X.X.X.X.X.X.X.X.X.X.X.X.X.X.X.X.X.X.X.X.X.X.X.X.X.X.X.X.X.X.X.X.X.X.X.X.X",
".X.XG .X.X.X.X.X.X.X.X.X.X.X.X.X.X.X.X.X.X.X.X.X.X.X.X.X.X.X.X.X.X.X.X.X.X.X.X.X.X.X.X.X.X.X.X.X.X.X.X.X.X.X.X.X.X.X.X.X.X.X.X.X",
".X.X.X.X.X.X.X.X.X.X.X.X.X.X.X.X.X.X.X.X.X.X.X.X.X.X.X.X.X.X.X.X.X.X.X.X.X.X.X.X.X.X.X.X.X.X.X.X.X.X.X.X.X.X.X.X.X.X.X.X.X.X.X.X",
".X.X.X.X.X.X.X.X.X.X.X.X.X.X.X.X.X.X.X.X.X.X.X.X.X.X.X.X.X.X.X.X.X.X.X.X.X.X.X.X.X.X.X.X.X.X.X.X.X.X.X.X.X.X.X.X.X.X.X.X.X.X.X.X"
};
