/* XPM */
static char *result[] = {
/* columns rows colors chars-per-pixel */
"64 64 159 2 ",
"   c #010100",
".  c #090604",
"X  c #0B0906",
"o  c #0E0B09",
"O  c #150E0B",
"+  c #1E0C0E",
"@  c #131007",
"#  c #15110C",
"$  c #1B150D",
"%  c #1E1A0E",
"&  c #1A1510",
"*  c #240E11",
"=  c #251212",
"-  c #221C13",
";  c #291E16",
":  c #261F19",
">  c #272213",
",  c #2D2816",
"<  c #272019",
"1  c #2C231C",
"2  c #352C14",
"3  c #392F16",
"4  c #32241A",
"5  c #332E19",
"6  c #3B2A1F",
"7  c #37311B",
"8  c #3B321A",
"9  c #3F381F",
"0  c #3C3117",
"q  c #342B22",
"w  c #3D2C22",
"e  c #3A3026",
"r  c #4A3D1D",
"t  c #421D20",
"y  c #412E23",
"u  c #463125",
"i  c #463E22",
"p  c #42362B",
"a  c #45392C",
"s  c #4B3A2D",
"d  c #4D3729",
"f  c #51392B",
"g  c #4C3F31",
"h  c #593F30",
"j  c #4E4527",
"k  c #534929",
"l  c #534436",
"z  c #5F4F3E",
"x  c #665328",
"c  c #624634",
"v  c #6C4C3A",
"b  c #684B35",
"n  c #6F5139",
"m  c #685D34",
"M  c #72503D",
"N  c #746639",
"B  c #796B3B",
"V  c #716437",
"C  c #675543",
"Z  c #6A5744",
"A  c #7B5742",
"S  c #78634E",
"D  c #7B6650",
"F  c #80383D",
"G  c #836C34",
"H  c #8D7437",
"J  c #94793A",
"K  c #883B41",
"L  c #825C46",
"P  c #A4474E",
"I  c #8F654D",
"U  c #8D7C45",
"Y  c #976B51",
"T  c #8C745B",
"R  c #877057",
"E  c #90775D",
"W  c #93795F",
"Q  c #9D7251",
"!  c #876F57",
"~  c #A77A56",
"^  c #A57559",
"/  c #AD7B5C",
"(  c #B17D5F",
")  c #997E63",
"_  c #B37F61",
"`  c #C6565F",
"'  c #CF5A63",
"]  c #D45C65",
"[  c #E6646E",
"{  c #E9666F",
"}  c #EA6670",
"|  c #958349",
" . c #9C8A4D",
".. c #B89748",
"X. c #B5845D",
"o. c #AB9754",
"O. c #B6A059",
"+. c #BFA95E",
"@. c #9D8266",
"#. c #AA8C6E",
"$. c #A3876A",
"%. c #B58061",
"&. c #BC8565",
"*. c #BD8A62",
"=. c #AF9071",
"-. c #B49575",
";. c #BD9C7A",
":. c #C09D4B",
">. c #CCA750",
",. c #C2AB5F",
"<. c #D3AD53",
"1. c #DAB355",
"2. c #E4BB5A",
"3. c #C58B6A",
"4. c #CA8F6C",
"5. c #C89267",
"6. c #CD916E",
"7. c #D0936F",
"8. c #D2996D",
"9. c #D89D6F",
"0. c #C19F7D",
"q. c #D09370",
"w. c #D99E70",
"e. c #C4AD60",
"r. c #D3BA67",
"t. c #D2B967",
"y. c #C4A17E",
"u. c #DEA272",
"i. c #CEB665",
"p. c #E6A777",
"a. c #E7A877",
"s. c #ECAC7A",
"d. c #F2C75F",
"f. c #F3C85F",
"g. c #DEC36D",
"h. c #E2C76F",
"j. c #E3C86F",
"k. c #FFD465",
"l. c #E9CE73",
"z. c #E4C970",
"x. c #F2D677",
"c. c #F6D978",
"v. c #F9DC7A",
"b. c #FFE27D",
"n. c #C9A683",
"m. c #CEAA85",
"M. c #C5A380",
"N. c #DBB48D",
"B. c #D3AE88",
"V. c #FEBA84",
"C. c #E4BD94",
"Z. c #E9C197",
"A. c #EEC49A",
"S. c #F1C79C",
"D. c #F4C99E",
"F. c #F7CCA0",
"G. c #F9CDA1",
"H. c #FDD1A4",
"J. c None",
/* pixels */
"J.J.J.J.J.J.J.J.J.J.J.J.J.J.J.J.J.J.J.J.J.J.J.J.J.J.J.J.J.J.J.J.J.J.J.J.J.J.J.J.J.J.J.J.J.J.J.J.J.J.J.J.J.J.J.J.J.J.J.J.J.J.J.J.",
"J.J.J.J.J.J.J.J.J.J.J.J.J.J.J.J.J.J.J.J.J.J.J.J.J.J.J.J.J.J.J.J.J.J.J.J.J.J.J.J.J.J.J.J.J.J.J.J.J.J.J.J.J.J.J.J.J.J.J.J.J.J.J.J.",
"J.J.J.J.J.J.J.J.J.J.J.J.J.J.J.J.J.J.J.                              J.J.J.J.J.J.J.J.J.J.J.J.J.J.J.J.J.J.J.J.J.J.J.J.J.J.J.J.J.J.",
"J.J.J.J.J.J.J.J.J.J.J.J.J.J.J.J.J.J.    O O O O O O # O $ O O O O O c q.J.&   J.J.J.J.J.J.J.J.J.J.J.J.J.J.J.J.J.J.J.J.J.J.J.J.J.",
"J.J.J.J.J.J.J.J.J.J.J.J.J.J.J.J.J.J.  . L %.( _ _ _ ( ( ( ( ( ( _ _ 3.6.6.b O     J.J.J.J.J.J.J.J.J.J.J.J.J.J.J.J.J.J.J.J.J.J.J.",
"J.J.J.J.J.J.J.J.J.J.J.J.J.J.J.J.J.J.J.  d 4.7.6.q.6.6.q.6.7.q.q.6.6.6.6.6.4./ b v J.J.J.J.J.J.J.J.J.J.J.J.J.J.J.J.J.J.J.J.J.J.J.",
"J.J.J.J.J.J.J.J.J.J.J.J.J.J.J.J.J.J.J.  . v 4.6.6.6.6.6.6.q.6.6.6.6.6.6.6.6.q.6.6.6.Y J.J.J.J.J.J.J.J.J.J.J.J.J.J.J.J.J.J.J.J.J.",
"J.J.J.J.J.J.J.J.J.J.J.J.J.J.J.J.J.J.J.J.  . h 3.4.6.6.6.6.4.6.4.6.6.6.6.4.6.6.6.6.6.A     J.J.J.J.J.J.J.J.J.J.J.J.J.J.J.J.J.J.J.",
"J.J.J.J.J.J.J.J.J.J.J.J.J.J.J.J.J.J.J.J.    4 &.6.6.6.6.6.6.6.6.6.4.6.6.4.q.4.q.4.q._ :   J.J.J.J.J.J.J.J.J.J.J.J.J.J.J.J.J.J.J.",
"J.J.J.J.J.J.J.J.J.J.J.J.J.J.J.J.J.J.J.  O v %.6.6.6.4.6.4.q.4.6.6.6.6.6.q.4.q.4.q.4.q.I .   J.J.J.J.J.J.J.J.J.J.J.J.J.J.J.J.J.J.",
"J.J.J.J.J.J.J.J.J.J.J.J.J.J.J.J.J.J.  O I 6.6.6.6.6.6.6.6.6.6.6.6.6.6.6.4.q.6.6.6.q.6.4.w   J.J.J.J.J.J.J.J.J.J.J.J.J.J.J.J.J.J.",
"J.J.J.J.J.J.J.J.J.J.J.J.J.J.J.J.J.    M 6.6.6.6.q.6.6.6.6.6.q.q.6.4.6.6.q.4.q.q.6.4.6.q.L   J.J.J.J.J.J.J.J.J.J.J.J.J.J.J.J.J.J.",
"J.J.J.J.J.J.J.J.J.J.J.J.J.J.J.J.J.  & %.6.7.4.^ ^ &.4.6.q.q.q.q.q.q.q.7.6.4.&.^ ^ 4.6.6./ O   J.J.J.J.J.J.J.J.J.J.J.J.J.J.J.J.J.",
"J.J.J.J.J.J.J.J.J.J.J.J.J.J.J.J.J.  y 4.4.7.( & X & q s c n A A A A Z c d 6 = . & ( q.6.3.;   J.J.J.J.J.J.J.J.J.J.J.J.J.J.J.J.J.",
"J.J.J.J.J.J.J.J.J.J.J.J.J.J.J.J.J.  f 4.7.q.Y   : q & o .             . X & q ; . Y q.4.4.w   J.J.J.J.J.J.J.J.J.J.J.J.J.J.J.J.J.",
"J.J.J.J.J.J.J.J.J.J.J.J.J.J.J.J.J.  f q.4.q.L   T S.N.n.-.#.@.@.) @.#.-.n.N.S.T   L q.6.6.d   J.J.J.J.J.J.J.J.J.J.J.J.J.J.J.J.J.",
"J.J.J.J.J.J.J.J.J.J.J.J.J.J.J.J.J.  f 4.7.q.v   =.H.H.H.H.H.H.H.H.H.H.H.H.H.H.=.  v q.6.6.f   J.J.J.J.J.J.J.J.J.J.J.J.J.J.J.J.J.",
"J.J.J.J.J.J.J.J.J.J.J.J.J.J.J.J.J.  f 6.4.4.u O n.H.H.H.H.H.H.H.H.H.H.H.H.H.H.n.o u 4.4.6.d   J.J.J.J.J.J.J.J.J.J.J.J.J.J.J.J.J.",
"J.J.J.J.J.J.J.J.J.J.J.J.J.J.J.J.J.  d 6.q.^ o w A.H.H.H.H.H.H.H.H.H.H.H.H.H.H.A.w O ^ q.7.f   J.J.J.J.J.J.J.J.J.J.J.J.J.J.J.J.J.",
"J.J.J.J.J.J.J.J.J.J.J.J.J.J.J.J.J.  f q.&.w   ) H.B.@.) M.F.H.H.H.H.F.M.@.#.B.G.@.  w &.7.f   J.J.J.J.J.J.J.J.J.J.J.J.J.J.J.J.J.",
"J.J.J.J.J.J.J.J.J.J.J.J.J.J.J.J.J.  d &.u   C A.E #     . C D.H.H.F.Z X     # ) A.z   u &.f   J.J.J.J.J.J.J.J.J.J.J.J.J.J.J.J.J.",
"J.J.J.J.J.J.J.J.J.J.J.J.J.J.J.J.    # 1   l C.H.D e R ) g l A.H.H.S.l l ) ! q S H.Z.l   1 #     J.J.J.J.J.J.J.J.J.J.J.J.J.J.J.J.",
"J.J.J.J.J.J.J.J.J.J.J.J.J.J.J.    $ $   g C.H.H.D.A.Z.C.A.A.G.H.H.H.Z.S.C.Z.A.F.H.H.C.a   $ $     J.J.J.J.J.J.J.J.J.J.J.J.J.J.J.",
"J.J.J.J.J.J.J.J.J.J.J.J.J.J.J.  4 8./   S H.H.H.H.Z.a < n.H.H.H.H.H.H.n.< a C.H.H.H.H.D   / 8.4   J.J.J.J.J.J.J.J.J.J.J.J.J.J.J.",
"J.J.J.J.J.J.J.J.J.J.J.J.J.J.J.  b V.5.. Z H.H.H.H.C.1 o ;.H.H.H.H.H.H.;.o 1 C.H.H.H.H.C . 5.V.b   J.J.J.J.J.J.J.J.J.J.J.J.J.J.J.",
"J.J.J.J.J.J.J.J.J.J.J.J.J.J.J.  f V.w.# g G.G.H.H.G.m.;.F.G.H.H.H.H.H.F.;.m.H.H.G.H.F.g O w.V.f   J.J.J.J.J.J.J.J.J.J.J.J.J.J.J.",
"J.J.J.J.J.J.J.J.J.J.J.J.J.J.J.  O X.s.4 1 Z.H.H.H.H.H.H.H.H.H.H.H.H.H.G.H.H.G.H.H.H.Z.1 4 s.X.O   J.J.J.J.J.J.J.J.J.J.J.J.J.J.J.",
"J.J.J.J.J.J.J.J.J.J.J.J.J.J.J.J.  $ b ; o n.H.H.H.H.H.H.H.G.H.G.H.G.H.H.H.G.H.H.H.H.n.o - b $   J.J.J.J.J.J.J.J.J.J.J.J.J.J.J.J.",
"J.J.J.J.J.J.J.J.J.J.J.J.J.J.J.J.J.        T H.H.G.H.H.H.H.G.H.H.H.H.H.H.H.H.H.H.H.H.E         J.J.J.J.J.J.J.J.J.J.J.J.J.J.J.J.J.",
"J.J.J.J.J.J.J.J.J.J.J.J.J.J.J.J.J.J.J.J.  p S.H.H.H.G.H.H.H.H.H.H.H.H.H.H.H.H.G.H.A.a   J.J.J.J.J.J.J.J.J.J.J.J.J.J.J.J.J.J.J.J.",
"J.J.J.J.J.J.J.J.J.J.J.J.J.J.J.J.J.J.J.J.  . -.H.G.H.H.F.-.M.Z.F.F.A.0.-.F.G.H.H.H.-..   J.J.J.J.J.J.J.J.J.J.J.J.J.J.J.J.J.J.J.J.",
"J.J.J.J.J.J.J.J.J.J.J.J.J.J.J.J.J.J.J.J.J.  g A.H.H.H.N.: X q g g q X % N.H.H.H.A.s   J.J.J.J.J.J.J.J.J.J.J.J.J.J.J.J.J.J.J.J.J.",
"J.J.J.J.J.J.J.J.J.J.J.J.J.J.J.J.J.J.J.J.J.  . T H.H.H.G.#.l : # # < l #.F.H.H.H.T .   J.J.J.J.J.J.J.J.J.J.J.J.J.J.J.J.J.J.J.J.J.",
"J.J.J.J.J.J.J.J.J.J.J.J.J.J.J.J.J.J.J.J.J.J.  & ;.H.H.H.H.G.C.N.N.C.G.H.H.H.H.;.&   J.J.J.J.J.J.J.J.J.J.J.J.J.J.J.J.J.J.J.J.J.J.",
"J.J.J.J.J.J.J.J.J.J.J.J.J.J.J.J.J.J.J.J.J.J.J.  < y.H.H.H.H.H.H.H.H.H.H.H.H.M.<   J.J.J.J.J.J.J.J.J.J.J.J.J.J.J.J.J.J.J.J.J.J.J.",
"J.J.J.J.J.J.J.J.J.J.J.J.J.J.J.J.J.J.J.J.J.J.J.J.  < -.H.H.H.H.H.H.H.G.H.H.-.<   J.J.J.J.J.J.J.J.J.J.J.J.J.J.J.J.J.J.J.J.J.J.J.J.",
"J.J.J.J.J.J.J.J.J.J.J.J.J.J.J.J.J.J.J.J.J.J.J.J.J.  # T Z.H.H.H.H.H.H.A.T #   J.J.J.J.J.J.J.J.J.J.J.J.J.J.J.J.J.J.J.J.J.J.J.J.J.",
"J.J.J.J.J.J.J.J.J.J.J.J.J.J.J.J.J.J.J.J.J.J.J.J.J.      p =.A.G.D.Z.=.a       J.J.J.J.J.J.J.J.J.J.J.J.J.J.J.J.J.J.J.J.J.J.J.J.J.",
"J.J.J.J.J.J.J.J.J.J.J.J.J.J.J.J.J.J.J.J.J.J.J.J.J.J.  6 X . 1 l l 4 . X 4   J.J.J.J.J.J.J.J.J.J.J.J.J.J.J.J.J.J.J.J.J.J.J.J.J.J.",
"J.J.J.J.J.J.J.J.J.J.J.J.J.J.J.J.J.J.J.J.J.J.J.J.J.  . *.*.c ; O # ; l 3.*.o   J.J.J.J.J.J.J.J.J.J.J.J.J.J.J.J.J.J.J.J.J.J.J.J.J.",
"J.J.J.J.J.J.J.J.J.J.J.J.J.J.J.J.J.J.J.J.J.J.J.J.J.  O 8.V.V.a.9.9.s.V.V.8.O   J.J.J.J.J.J.J.J.J.J.J.J.J.J.J.J.J.J.J.J.J.J.J.J.J.",
"J.J.J.J.J.J.J.J.J.J.J.J.J.J.J.J.J.J.J.J.J.J.J.J.J.  $ u.V.V.V.V.V.V.V.V.p.$   J.J.J.J.J.J.J.J.J.J.J.J.J.J.J.J.J.J.J.J.J.J.J.J.J.",
"J.J.J.J.J.J.J.J.J.J.J.J.J.J.J.J.J.J.J.J.J.J.J.      ; a.V.V.V.V.V.V.V.V.a.;       J.J.J.J.J.J.J.J.J.J.J.J.J.J.J.J.J.J.J.J.J.J.J.",
"J.J.J.J.J.J.J.J.J.J.J.J.J.J.J.J.J.J.          # 2 o $ u.V.V.V.V.V.V.V.V.u.$ X 2 #           J.J.J.J.J.J.J.J.J.J.J.J.J.J.J.J.J.J.",
"J.J.J.J.J.J.J.J.J.J.J.J.J.J.          $ >   r <.2.3   ~ V.V.V.V.V.V.V.V.~   3 2.<.r   > $           J.J.J.J.J.J.J.J.J.J.J.J.J.J.",
"J.J.J.J.J.J.J.J.J.J.J.J.    . % j B o.g.|   H k.d.3   6 p.V.V.V.s.V.V.a.6   3 d.k.H   | g.o.N j % .     J.J.J.J.J.J.J.J.J.J.J.J.",
"J.J.J.J.J.J.J.J.J.J.    % N O.g.c.b.b.b.N   ..k.d.3     f 9.V.V.V.V.9.f     3 d.k...  V b.b.b.v.g.O.N -     J.J.J.J.J.J.J.J.J.J.",
"J.J.J.J.J.J.J.J.J.    j r.b.b.b.b.b.b.c.j $ 1.k.d.3 O t   - n Q ^ n %   y + 2 d.k.1.$ j b.b.b.b.b.b.b.r.i     J.J.J.J.J.J.J.J.J.",
"J.J.J.J.J.J.J.J.J.  5 g.H.b.b.b.b.b.b.z.> 3 d.k.d.3 = ` F *         * F ` = 2 d.k.d.3 > z.b.b.b.b.b.b.b.d., . J.J.J.J.J.J.J.J.J.",
"J.J.J.J.J.J.J.J.     .b.b.b.b.b.b.b.b.e.. x k.k.d.3 + ] } ' P K K P ' { ] * 3 d.k.k.x X e.b.b.b.b.b.b.b.H. ..   J.J.J.J.J.J.J.J.",
"J.J.J.J.J.J.J.J.J.k l.b.b.b.b.b.b.b.b. .  J k.k.d.2 = ] [ [ { { } } [ { ] * 2 d.k.k.J    .b.b.b.b.b.b.b.b.g.%   J.J.J.J.J.J.J.J.",
"J.J.J.J.J.J.J.J.J.c.b.b.b.b.b.b.b.b.b.m . ..k.k.2.2 * ] [ [ [ [ [ [ [ [ ] * 2 2.k.k.... m b.b.b.b.b.b.b.b.x.7   J.J.J.J.J.J.J.J.",
"J.J.J.J.J.J.J.J.J.b.b.b.b.b.b.b.b.b.c.9 % 1.>.G 3   * ] [ [ [ [ [ [ [ [ ] = . 2 G >.<.% 9 c.b.b.b.b.b.b.b.v.j   J.J.J.J.J.J.J.J.",
"J.J.J.J.J.J.J.J.k j.b.b.b.b.b.k.b.b.g.% @ 0 X   $ X = ] [ [ [ [ [ [ [ { ] = . $   X 0 @ % g.b.b.b.b.b.b.b.b.m   J.J.J.J.J.J.J.J.",
"J.J.J.J.J.J.J.J.. U b.b.b.b.b.b.b.b.,..   # j  .i.3 = ] [ [ [ [ [ [ [ [ ] * 7 r. .j #   . ,.b.b.b.b.b.b.b.b.B   J.J.J.J.J.J.J.J.",
"J.J.J.J.J.J.J.J.  | b.b.b.b.b.b.b.b.j.V U r.v.b.c.7 * ] } [ [ [ [ [ [ [ ] + 7 c.b.v.r.| V j.b.b.b.b.v.b.b.b.|   J.J.J.J.J.J.J.J.",
"J.J.J.J.J.J.J.J.  o.b.b.b.b.b.b.b.b.b.b.b.b.b.b.x.7 * ] [ [ [ [ [ [ [ [ ] * 5 x.b.b.b.b.b.b.b.v.b.b.b.b.b.b.o.  J.J.J.J.J.J.J.J.",
"J.J.J.J.J.J.J.  X +.b.b.b.b.b.b.b.b.b.b.b.b.b.b.x.7 * ] [ [ [ [ [ [ [ [ ] * 3 x.b.b.b.b.b.b.b.b.b.b.b.b.b.b.+.X   J.J.J.J.J.J.J.",
"J.J.J.J.J.J.J.  @ g.b.b.b.b.b.b.b.b.b.b.b.b.b.b.x.7 * ] [ [ [ [ [ [ [ [ ] * 7 x.b.b.b.b.b.b.b.b.b.b.b.b.b.b.r.#   J.J.J.J.J.J.J.",
"J.J.J.J.J.J.J.  - g.b.b.b.b.b.b.b.v.b.b.b.b.b.b.x.7 * ] [ [ [ [ [ [ [ [ ] * 7 x.b.b.b.b.b.b.b.b.b.b.b.b.b.b.g.>   J.J.J.J.J.J.J.",
"J.J.J.J.J.J.J.  > l.b.b.b.b.b.b.b.b.b.b.b.b.b.b.x., + ] { { { { { [ [ } ] + , x.b.b.b.b.b.b.b.b.b.b.b.b.b.b.l.>   J.J.J.J.J.J.J.",
"J.J.J.J.J.J.J.J.J.J.J.J.J.J.J.J.J.J.J.J.J.J.J.J.J.J.J.J.J.J.J.J.J.J.J.J.J.J.J.J.J.J.J.J.J.J.J.J.J.J.J.J.J.J.J.J.J.J.J.J.J.J.J.J.",
"J.J.J.J.J.J.J.J.J.J.J.J.J.J.J.J.J.J.J.J.J.J.J.J.J.J.J.J.J.J.J.J.J.J.J.J.J.J.J.J.J.J.J.J.J.J.J.J.J.J.J.J.J.J.J.J.J.J.J.J.J.J.J.J.",
"J.J.J.J.J.J.J.J.J.J.J.J.J.J.J.J.J.J.J.J.J.J.J.J.J.J.J.J.J.J.J.J.J.J.J.J.J.J.J.J.J.J.J.J.J.J.J.J.J.J.J.J.J.J.J.J.J.J.J.J.J.J.J.J."
};
