/* XPM */
static char *result[] = {
/* columns rows colors chars-per-pixel */
"64 64 39 1 ",
"  c #FCBE2C",
". c #FCBF2C",
"X c #FCBF2D",
"o c #FCC02D",
"O c #FCC02E",
"+ c #FCC12F",
"@ c #FCC430",
"# c #FCC432",
"$ c #FDCB37",
"% c #FDCC38",
"& c #FDD03C",
"* c #FDD13D",
"= c #FED842",
"- c #FED942",
"; c #FED943",
": c #FED944",
"> c #FEDA44",
", c #FEDA45",
"< c #FEDA46",
"1 c #FEDA47",
"2 c #FEDB48",
"3 c #FEDC4D",
"4 c #FEDE58",
"5 c #FEE25D",
"6 c #FEE25F",
"7 c #FFE463",
"8 c #FFE669",
"9 c #FFE76B",
"0 c #FFEB7A",
"q c #FFEC7B",
"w c #FFEC7C",
"e c #FFEC7D",
"r c #FFEC7E",
"t c #FFED7E",
"y c #FFF197",
"u c #FFF6B0",
"i c #FFF6B1",
"p c #FFF6B2",
"a c None",
/* pixels */
"aaaaaaaaaaaaaaaaaaaaaaaaaaaaaaaaaaaaaaaaaaaaaaaaaaaaaaa;;;aaaaaa",
"aaaaaaaaaaaaaaaaaaaaaaaaaaaaaaaaaaaaaaaaaaaaaaaaaaaaaa;;;;;aaaaa",
"aaaaaaaaaaaaaaaaaaaaaaaaaaaaaaaaaaaaaapaaaaaaaaaaaaaaa;;;;;aaaaa",
"aaaaaaaaaaaaaaaaaaaaaaaaaaaaaaaaaaaaappppaaaaaaaaaaaa;;;;;;=aaaa",
"aaaaaaaaaaaaaaaaaaaaaaaaaaaawaaaaaaapppppaaaaaaaaaaa;;;;;;=%Xaaa",
"aaaaaaaaaaaaaaaaaaaaaaaaaaawwwaaaaaaapppaaaaaaaaaa;;;;;;;=%X  Xa",
"aaaaaaaaaaaaaaaaaaaaaaaaaawwwwwaaaaaaapaaaaaaaaaa;;;;;;;=%X     ",
"aaaaaappaaaaaaaaaaaaaaaaawwwwwaaaaaaaaaaaaaaaaaaa;;;;;;=%X      ",
"aaaaappppaaaaaaaaaaaaaaawwwwwaaaaaaaaaaaaaaaaaaaa;;;;;=%X       ",
"aaaaappppaaaaaaaaaaaaaawwwwwaaaaaaaaaaaaaaaaaaaaaa;;;=%X      Xa",
"aaaaaapppaaaaa;;;;aaaawwwwwaaaaaaaaaaaaaaaaaaaaaaaaa;%X     Xaaa",
"aaaaaaapaaaaaa;;;;aaawwwwwaaaaaaaaaaaaaaaaaaaaaaaaaaaX     Xaaaa",
"aaaaaaaaaaaaaa;;;;;awwwwwaaaaaaaaaaaaaaaaaaaaaaaaaaaaa.    aaaaa",
"aaaaaaaaaaaaa;;;;;;7wwwwaaaaaaaaaaaaaaaaaaaaaaaaaaaaaaX   Xaaaaa",
"aaaaaaaaaaaa;;;;;;;28weaaaaaaaaaaaaaaaaaaaaaaaaaaaaaaaa   aaaaaa",
"aaaaaaaaaaa;;;;;;;;;15aaaaaaaaaaaaaaaaaaaaaaaaaaaaaaaaaaaaaaaaaa",
"aaaaaaaa;;;;;;;;;;;;;-;;aaaaaaaaaaaaaaaaaaaaapaaaaaaaaaaaaaaaaaa",
"aaaaaaaa;;;;;;;;;;;;;;;;;aaaaaaaaaaaaaaaaaaapuyaaaaaaaaaaaaaaaaa",
"aaaaaaaa;;;;;;;;;;;;;;;;;aaaaaaaaaaaaaaaaaapiyrraaaaaaaaaaaaaaaa",
"aaaaaaaa;;;;;;;;;;;;;;;;;aaaaaaaaaaaaaaaaaaayewaaaaaaaaaaaaaaaaa",
"aaaaaaaaa;;;;;;;;;;;;;;;aaaaaaaaaaaaaaaaaaaaaeaaaaaaaaaaaaaaaaaa",
"aaaaaaaaaaa;;;;;;;;;;aaaaaaaaaaaaaaaaaaaaaaaaaaaaaaaaaaaaaaaaaaa",
"aaaaaaaaaaaaa;;;;;;;aaaaaaaaaaaaaaaaaaaw0aaaaaaaaaaaaaaaaeeaaaaa",
"aaaaaaaaaaaaa;;;;;;aaaaaaaaaaaaaaaaaaawq6<aaaaaaaaaaaaaaewweaaaa",
"aaaaaaaaaaaaaa;;;;;aaaaaaaaaaaaaaaaaawq6::aaaaaaaaaaaaaawwweaaaa",
"aaaaaaaaaaaaaa;;;;aaaaaaaaaaaaaaaaaawq6:;aaaaaaaaaaaaaaarweaaaaa",
"aaaaaaaaaaaaaa;;;;aaaaaaaaaaaaaaaaawq6:;aaaaaaaaaaaaaaaaaaaaaaaa",
"aaaaaaaaaaaaaaaaaaaaaaaaaaaaaaaaaawq6:;aaaaaaaaaaaaaaaaaaaaaaaaa",
"aaaapaaaaaaaaaaaaaaaaaaaaaaaaaaaaa06:;aaaaaaaaaaaaaaaaaaaaaaaaaa",
"aaapppaaaaaaaaaaaaaaaaaaaaaaaaaaaaa<:aaaaaaaaaaaaaaaaaaaaaaaaaaa",
"aapppppaaaaaaaaaaaaaaaaaaaaaaaaaaaaaaaaaaaaaaaaaaaaaaaaaaaaaaaaa",
"aaapppaaaaaaaaaaaaaaaaaaaaaaaaaaaaaaaaaaaaaaaaaaaaaaaaaaaaaaaaaa",
"aaaapaaaaaaaaaaaaaaaaaaaaaaaaw0aaaaaaaaaaaaaaaaaaaaaaaaaaaaaaaaa",
"aaaaaaaaaaaaaaaaaaaaaaaaaaaawq6,aaaaaaaaaaaaaaaaaaaaaaaa>aaaaaaa",
"aaaaaaaaaaaaaaaaaaaaaaaaaaawq6::aaaaaaaaaaaaaaaaaaaaaaa:;:aaaaaa",
"aaaaaaaaaaaaaaaaaaaaaaaaaawq6::aaaaaaaaaaaaaaaaaaaaaaa:;;;>aaaaa",
"aaaaaaaaaaaaaaaaaaaaaaaaawq6::aaaaaaaaaaaaaaaXXXXaaaa:;;;:aaaaaa",
"aaaaaaaaaaaaaaaaaaaaaaaawq6::aaaaaaaaaaaaaaaa    aaa:;;;:aaaaaaa",
"aaaaaaaaaaaaaaaaaaaaaaawq6::aaaaaaaaaaaaaaaaa    aa:;;;:aaaaaaaa",
"aaaaaaaaaaaaaaaaaaaaaawq6::aaaaaaaaaaaaaaaaaX    #:;;;:aaaaaaaaa",
"aaaaaaaaaaaaaaaaaaaaawq6::aaaaaaaaaaaaaaaaaa     O&;;:aaaaaaaaaa",
"aaaaaaaaaa;;;aaaaaaawq6::aaaaaaaaaaaaaaaaaa       +&;aaaaaaaaaaa",
"aaaaaaaaaa;;;;aaaaawq6::aaaaaaaaaaaaaaaaaX         O#aaaaaaaaaaa",
"aaaaaaaaa;;;;;aaaawq6::aaaaaaaaaaaaaaaX                Xaaaaaaaa",
"aaaaaaaaa;;;;;aaawq6::aaaaaaaaaaaaaaaa                 .aaaaaaaa",
"aaaaaaaa;;;;;;;awq6::aaaaaaaaaaaaaaaaa                 .aaaaaaaa",
"aaaaaaaa;;;;;;:9q6::aaaaaaaaaaaaaaaaaa                 Xaaaaaaaa",
"aaaaaaa;;;;;;;;34,:aaaaaaaaaaaaaaaaaaaaaa.          Xaaaaaaaaaaa",
"aaaaaa;;;;;;;;=$@*aaaaaaaaaaaaaaaaaaaaaaaaX        aaaaaaaaaaaaa",
"aaaa;;;;;;;;;=%X XXaaaaaaaaaaaaaaaaaaaaaaaaX      aaaaaaaaaaaaaa",
"a;;;;;;;;;;;=%X     XXaaaaaaaaaaaaaaaaaaaaaa.    Xaaaaaaaaaaaaaa",
";;;;;;;;;;;=%X         aaaaaaaaaaaaaaaaaaaaaa    aaaaaaaaaaaaaaa",
";;;;;;;;;;=%X          aaaaaaaaaaaaaaaaaaaaaa    aaaaaaaaaaaaaaa",
";;;;;;;;;=%X           aaaaaaaaaaaaataaaaaaaa.  Xaaaaaaaaaaaaaaa",
"aa;;;;;;=%X         XXaaaaaaaaaaaaaewraaaaaaaaaaaaaaaaaaaaaaaaaa",
"aaaaa;;=%X        Xaaaaaaaaaaaaaaaewwwraaaaaaaaaaaaaaaaaaaaaaaaa",
"aaaaaa=%X       .aaaaaaaaaaaaaaaaarwweaaaaaaaaaaaaaaaaaaaaeeaaaa",
"aaaaaaao        aaaaaaaaaaaaaaaaaaareaaaaaaaaaaaaaaaaaaaaewweaaa",
"aaaaaaaa       aaaaaaaaaaaaaaaaaaaaaaaaaaaaaaaaaaaaaaaaaawwweaaa",
"aaaaaaaaa     Xaaaaaaaaaaaaaaaaaaaaaaaaaaaaaaaaaaaaaaaaaaaweaaaa",
"aaaaaaaaa     aaaaaaaaaaaaaaaaaaaaaaaaaaaaaaaaaaaaaaaaaaaaaaaaaa",
"aaaaaaaaaX   Xaaaaaaaaaaaaaaaaaaaaaaaaaaaaaaaaaaaaaaaaaaaaaaaaaa",
"aaaaaaaaaa   Xaaaaaaaaaaaaaaaaaaaaaaaaaaaaaaaaaaaaaaaaaaaaaaaaaa",
"aaaaaaaaaa   aaaaaaaaaaaaaaaaaaaaaaaaaaaaaaaaaaaaaaaaaaaaaaaaaaa"
};
