/* XPM */
static char *result[] = {
/* columns rows colors chars-per-pixel */
"64 64 192 2 ",
"   c #731F2A",
".  c #761E26",
"X  c #75212C",
"o  c #79252E",
"O  c #7E2A2F",
"+  c #762631",
"@  c #7C2731",
"#  c #7E2A31",
"$  c #7A2C39",
"%  c #772C3D",
"&  c #7C303C",
"*  c #7B3344",
"=  c #7B394D",
"-  c #7B364A",
";  c #7C3D55",
":  c #7D445F",
">  c #7D4661",
",  c #842D2F",
"<  c #89302F",
"1  c #822D33",
"2  c #852F3A",
"3  c #853232",
"4  c #8A3432",
"5  c #8C3A35",
"6  c #86303A",
"7  c #8C353F",
"8  c #943A32",
"9  c #9E3F31",
"0  c #9B4739",
"q  c #A34534",
"w  c #AB4C36",
"e  c #AB4F38",
"r  c #A8543E",
"t  c #B95639",
"y  c #C25E3A",
"u  c #CE673C",
"i  c #D56E3E",
"p  c #DD723E",
"a  c #E2763F",
"s  c #E77A3F",
"d  c #E87A3F",
"f  c #8E3640",
"g  c #853D4B",
"h  c #923944",
"j  c #993F48",
"k  c #813F50",
"l  c #85414E",
"z  c #9B424B",
"x  c #854657",
"c  c #944A56",
"v  c #A54A52",
"b  c #A94D55",
"n  c #A84C56",
"m  c #AD515A",
"M  c #B2555E",
"N  c #AA5649",
"B  c #B46545",
"V  c #AF6852",
"C  c #86536B",
"Z  c #915C6A",
"A  c #825372",
"S  c #B65961",
"D  c #BC5E66",
"F  c #94687B",
"G  c #8F657C",
"H  c #BD636C",
"J  c #BC6975",
"K  c #C97A4D",
"L  c #DD7A44",
"P  c #CC6858",
"I  c #C76455",
"U  c #E57B42",
"Y  c #E87B40",
"T  c #E27F4C",
"R  c #D57F65",
"E  c #7FAB79",
"W  c #BAB678",
"Q  c #AAB074",
"!  c #D58752",
"~  c #DD9257",
"^  c #EB8345",
"/  c #ED8748",
"(  c #EE8B4A",
")  c #EF8A47",
"_  c #F08F4C",
"`  c #F1924E",
"'  c #E68552",
"]  c #E58858",
"[  c #E29456",
"{  c #E59A5A",
"}  c #E69B5A",
"|  c #F29651",
" . c #F49B54",
".. c #EDA25D",
"X. c #F6A057",
"o. c #F5A35A",
"O. c #F9A65A",
"+. c #FBAB5D",
"@. c #F3A95F",
"#. c #D68666",
"$. c #D28972",
"%. c #DE9C7F",
"&. c #E28F66",
"*. c #D7B36B",
"=. c #F9AE60",
"-. c #FFB664",
";. c #FFB865",
":. c #FFBA6C",
">. c #F5B66A",
",. c #FDBC71",
"<. c #ECB467",
"1. c #FFC17A",
"2. c #896587",
"3. c #936A83",
"4. c #9D7889",
"5. c #866B96",
"6. c #927696",
"7. c #BD7884",
"8. c #A17F91",
"9. c #8A79A7",
"0. c #C07F8C",
"q. c #57AA83",
"w. c #66BE9A",
"e. c #7CD0B0",
"r. c #BC868E",
"t. c #A18497",
"y. c #BF949A",
"u. c #8C83B7",
"i. c #958AB5",
"p. c #AF9BAE",
"a. c #B492AD",
"s. c #B1A5BA",
"d. c #E09F80",
"f. c #C396A6",
"g. c #C2A5B8",
"h. c #A4C28E",
"j. c #8DD9BC",
"k. c #DAC484",
"l. c #C2C78E",
"z. c #FFC88A",
"x. c #FFD88F",
"c. c #FFCC93",
"v. c #FFD09C",
"b. c #FFD6A6",
"n. c #FFDDB6",
"m. c #E9CFB0",
"M. c #9697CC",
"N. c #949CD7",
"B. c #908FC6",
"V. c #9CA0D2",
"C. c #A8A2CA",
"Z. c #B9B2C6",
"A. c #BBB6CA",
"S. c #A6A8D2",
"D. c #AEB2D6",
"F. c #BDBDD5",
"G. c #B5ACC0",
"H. c #9BADED",
"J. c #97A7E5",
"K. c #95AEF4",
"L. c #9BB3F5",
"P. c #A3BBF6",
"I. c #A9BEF4",
"U. c #A4BAF4",
"Y. c #A2B3EC",
"T. c #C7B7CB",
"R. c #AEC2F3",
"E. c #ACC4FA",
"W. c #B3CAF9",
"Q. c #B5CBF8",
"!. c #BBD3FC",
"~. c #D9C6C4",
"^. c #C6C3D8",
"/. c #C5E9D6",
"(. c #FFE9D0",
"). c #C5CCE3",
"_. c #C8D4EB",
"`. c #D5D8E3",
"'. c #D2DEEF",
"]. c #C4DBFD",
"[. c #C9DCF8",
"{. c #D9E0E7",
"}. c #CCE2FE",
"|. c #CEE0F6",
" X c #D1E6FE",
".X c #D2E9FF",
"XX c #DAEBFF",
"oX c #E5F2FF",
"OX c #F2F9FF",
"+X c #FCFEFF",
"@X c #FFF0E0",
"#X c None",
/* pixels */
"#X#X#X#X#X#X#X#X#X#X#X#X#X#X#X#X#X#X#X#X#X#X#X#X#X#X#X#X#X#X#X#X#X#X#X#X#X#X#X#X#X#X#X#X#X#X#X#X#X#X#X#X#X#X#X#X#X#X#X#X#X#X#X#X",
"#X#X#X#X#X#X#X#X#X#X#X#X#X#X#X#X#X#X#X#X#X#X#X#X#X#X#X#X#X#X#X#X#X#X#X#X#X#X#X#X#X#X#X#X#X#X#X#X#X#X#X#X#X#X#X#X#X#X#X#X#X#X#X#X",
"#X#X#X#X#X#X#X#X#X#X#X#X#X#X#X#X#X#X#X#X#X#X#X#X#X#X#X#X#X#X#X#X#X#X#X#X#X#X#X#X#X#X#X#X#X#X#X#X#X#X#X#X#X#X#X#X#X#X#X#X#X#X#X#X",
"#X#X#X#X#X#X#X#X#X#X#X#X#X#X#X#X#X#X#X#X#X#X#X#X#X#X#X#X#X#X#X#X#X#X#X#X#X#X#X#X#X#X#X#X#X#X#X#X#X#X#X#X#X#X#X#X#X#X#Xx.#X#X#X#X",
"#X#X#X#X#X#X#X#X#X#X.X.X.X#X#X#X#X#X#X#X#X#X#X#X#X#X#X-.;.#X#X#X#X#X#X#X#X#X#X#X#X#X#X#X#X#X#X#X#X#X#X#X#X#X#X#X#X#Xx.x.x.#X#X#X",
"#X#X#X#X#X#X#X#X.X.XoXXX.X.X#X#X#X#X#X#X#X#X#X#X#X#X#X-.-.#X#X#X#X#X#X#X#X#X#X#X#X#X#X#X#X#X#X#X#X#X#X#X#X#X#X#X#Xx.x.x.x.#X#X#X",
"#X#X#X#X#X#XK.W..XOX+XXX.X.X#X#X#X#X#X#X#X#X#X#X#X#X-.-.-.-.#X#X#X#X#X#X#X#X#X-.-.-.-.#X#X#X#X#X#X#X#X#X#X#X#X#X#Xx.x.x.x.x.#X#X",
"#X#X#X#X#X#XK.I.XX+XOX.X.X.X.X#X#X#X#X#X#X#X#X#X#X#X-.-.-.-.;.#X#X#X#X#X#X#X-.-.;.-.-.-.;.#X#X#X#X#X#X#X#X#X#X#X#X#Xx.x.x.#X#X#X",
"#X#X#X#X#X#XK.L.].OXoX.X.X.X.X#X#X.X.X.X#X#X#X#X#X#X-.-.-.-.#X#X#X#X#X#X#X-.-.-.-.-.-.-.;.-.#X#X#X#X#X#X#X#X#X#X#X#Xx.x.#X#X#X#X",
"#X#X#X#X#X#X#XK.E..X.X X.X.X.X.X.X.X.X.X#X#X#X#X#X#X#X;.-.-.#X#X#X#X#X#X#X-.;.#X#X#X-.;.;.,.:.-.#X#X#X#X#X#X#X#X#X#X#Xx.#X#X#X#X",
"#X#X#X#X#X#X#XK.L.]..X.X.X X.X.X}..X.X.X#X#X#X#X#X#X#X#X-.#X#X#X#X#X#X#X;.-.-.#X#X#X#X-.-.c.z.-.-.-.#X#X#X#X#X#X#X#X#X#X#X#X#X#X",
"#X#X#X#X#X#X#X#XK.R..X.X.X.X.X.X.X.X.X.X.X#X#X#X#X#X#X#X-.#X#X#X#X#X#X#X-.-.-.#X#X#X#X-.v.z.-.-.-.-.-.-.#X#X#X#X#X#X#X#X#X#X#X#X",
"#X#X#X#X#X#X#X#XE.]. X.X.X.X.X X.X.X.X.X.X#X#X#X#X#X#X#X#X#X#X#X#X#X#X#X#X-.-.#X#X#X#X1.@Xz.-.-.-.;.-.-.-.-.#X#X#X#X#X#X#X#X#X#X",
"#X#X#X#X#X#X#X.X.X.X.X.X X.X.X.X.X.X.X#X#X#X#X#X#X#X#X#X#X#X#X#X#X#X#X#X#X#X;.#X#X#X#Xb.@X:.-.;.k.l.>.-.-.-. .Y #X#X#X#X#X#X#X#X",
"#X#X#X#X#XL.]..X.X.X X.X.X X.X X.X.X#X#X#X#X#X#X#X#X#X#X#X#X#X#X#X#X#X#X#X#X#X#X#X#X-.n.(.-.-.k./.j.l.=.-.-.( Y Y Y #X#X#X#X#X#X",
"#X#X#X#X#XK.R..X.X.X.X.X.X.X.X.X.X.X#X#X#X#X#X#X#X#X#X#X#X#X#X#X#X#X#X#X#X#X#X#X#X#X-.b.b.-.-.h.e.w.W -.-.+.^ Y Y Y Y Y #X#X#X#X",
"#X#X#X#X#XK.L.]..X.X.X].}..X.X.X.X.X.X#X#X#X#X#X#X#X#X#X#X#X#X#X#X#X#X#X#X#X#X#X#X#X#X:.:.-.-.Q E E <.=.-.| Y Y Y Y Y Y Y #X#X#X",
"#X#X#X#X#X#XK.E.}..XW.L.W..X.X.X.X.X.X#X#X#X#X#X#X#X#X#X#X#X#X#X#X#X#X#X#X#X#X#X#X#X#X-.-.-.-.>.W <.-.-.X.Y Y Y #X#XY Y Y Y #X#X",
"#X#X#X#X#X#X#XL.#X#X#XK.L.}..X.X.X].!.P.#X#X#X#X#X#X#X#X#X#X#X#X#X#X#X#X#X#X#X#X#X#X#X#X-.;.-.;.;.;.-. .^ s Y #X#X#X#XY Y Y #X#X",
"#X#X#X#X#Xx.#X#X#X#X#XK.K.W..X].W.L.K.K.#X#X#X#X#X#X#X#X#X#X#X#X#X#X#X#X#X#X#X#X#X#X#X#X#XX.+.+.+.X.) d Y Y #X#X#X#X#XY Y Y #X#X",
"#X#X#X#Xx.x.x.#X#X#X#X#XK.L.E.L.K.K.K.H.G.#XY Y Y #X#X#X#X#X#X#X#X#X#X#X#X#X#X#X#X#X#X#X#XY ^ ^ Y Y Y Y ^ #X#X#X#X#XY Y Y Y #X#X",
"#X#X#X#Xx.x.x.x.#X#X#X#XL.K.K.K.K.S.y.$.T U Y Y Y Y #X#X#X#X#X#X#X#X#X#X#X#X#X#X#X#X#X#X#XY s d #X#X#X#X#X#X#X#X#Xs Y Y s #X#X#X",
"#X#X#X#Xx.x.x.x.x.#X#X#X#XH.C.y.#.T d d d Y Y U Y Y Y Y Y U <   X X X X X X X X X X X o u Y d y #X#X#X#X#X#X#X#X#XY Y #X#X#X#X#X",
"#X#X#Xx.x.x.x.x.#X#X#X#X#X$.T d s Y Y Y Y Y d d d Y Y d d U 8   X X X X   X X X X X X 8 a Y p 1 X #X#X#X#X#X#X#X#X#X#X#X#X#X#X#X",
"#X#X#X#X#Xx.x.x.#X#X#X#X#Xd Y Y Y Y Y Y Y Y Y Y Y Y Y Y Y Y w < 1 , # # O 1 O O # # o t d d w X X X #X#X#X#X#X#X#X#X#X#X#X#X#X#X",
"#X#X#X#X#X#Xx.#X#X#X#X#X#XY Y Y Y ^ / Y Y Y Y Y Y Y Y Y Y Y a p p L { { } } } } { { ! L d p 1   X X X #X#X#X#X#X#X#X#X#X#X#X#X#X",
"#X#X#X#X#X#X#X#X#X#X#XY Y Y _ O.+.=.=.| Y Y Y Y U Y Y Y Y Y Y Y Y / +.-.-.;.;.;.;.-.-./ d w     X X X X #X#X#X#X#X#X#X#X#X#X#X#X",
"#X#X#X#X#X#X#X#X#X#Xd d Y Y +.;.-.O._ / Y ^ _ | | ^ Y Y Y Y Y Y Y Y ^ ^ /  .-.-.-.-.-.+. .K B r O X X X X #X#X#X#X#X#X#X#X#X#X#X",
"#X#X#X#X#X#X#X#X#X#X( _ ` | -.-.+.^ /  .+.=.-.-.-.` Y Y Y ^ ^ Y Y Y Y ^ ` O.-.-.-.-.-.-.;.;.;.=.0 X X X X X X #X#X#X#X#X#X#X#X#X",
"#X#X#X#X#X#X#X#X#X#X-.-.-.-.-.;.X.^ +.-.-.-.+._ / / `  .O.-.X.Y Y Y Y U ( ( ( ( / / /  .=.-.;.-.B 3 1 + X X X + #X.X#X#X#X#X#X#X",
"#X#X#X#X#X#X#X#X#X-.-.;.-.-.-.;.+._ -.-.-.-./ ( O.-.-.-.-.-.=.^ s s Y Y d d d Y &.d.] Y | ;.;.;.@.} ..K O X X Z |..X].#X#X#X#X#X",
"#X#X#X#X#X#X#X-.-.-.-.-.-.;.-.-.-.-.-.-.-.-.( O.;.-.-.-.;.,.>.] ' ' ' ^ d d s d.'..XF.! ^ +.=.=.-.-.=.@.5 X   t.XX.X!.L.#X#X#X#X",
"#X#X#X#X#X#X#X-.-.-.-.-.-.-.-.-.-.-.-.-.-.-.+.-.-.-.;.;.m.{.{.`.`.`.`.~.] s U ~..X.XE.y.d ^ / ^ ^ ^ / U 4 X . A R.W.L.#X#X#X#X#X",
"#X#X#X#X#X#X#XR R R R R #.R R R R R R R R R R R R R B V '..X.X.X.X.X.X.Xr.q 0 p.].!.L.3.q I P P P P P I b v 7 o 5.I.P.#X#X#X#X#X",
"#X#X#X#X#X#X#XD D D D S D D D D D D D D D D D D D S 5 : _..X.X}.}.}..X.X4.    - B.L.u.% X b D D D D D D D M @ k ^. X].#X#X#X#X#X",
"#X#X#X#X#X#X#XD D D D D D D D D D D D D D D D D D D 7 * )..X XW.P.}..X.XF   X $ s.}.M.; 1 S D D D D D D D m X 8..X.X].L.#X#X#X#X",
"#X#X#X#X#X#X#XD D D D D D D D D D D D D D D D D D H h $ ^..X.XE.L.}..X|.Z .   4..X.X!.9.z D D D D D D D D S 1 F ].].I.L.#X#X#X#X",
"#X#X#X#X#X#X#XD D D D D D D D D D D D D D D D D D D z $ A..X.X!.W. X.X|.x .   4..X}.E.u.$ m H D D D D D D D z - V.L.K.#X#X#X#X#X",
"#X#X#X#X#X#X#XD D D D D D D D D D D D D D D D D D D z + s.XX.X.X X X.X_.l   X k C.P.J.A   z D D H D D D D n l G.[.].#X#X#X#X#X#X",
"#X#X#X#X#X#X#X#XD D D D D D D D D D D D D D D D D D v X 4..X.X.X.X.XXXZ.$ X X X G Q.D.g X n D D D D D D D h t..X.X].L.#X#X#X#X#X",
"#X#X#X#X#X#X#X#X7 7 7 7 7 7 7 7 f f f f 7 7 f 7 f f 2 X % 8.Z.Z.A.Z.p.l   o   g ^.XX Xi.$ 6 f f 7 7 7 7 f @ 8.}.}.W.L.#X#X#X#X#X",
"#X#X#X#X#X#X#X#X    X     X                     X X   X     + + + + X X       Z }..X}.H.*                 % 3.Y.P.K.#X#X#X#X#X#X",
"#X#X#X#X#X#X#X#Xh h h h h h h h f h h h h h h h h h 7 h h h f h z 7 h h h h 7 - S.W.E.u.+ # h h h h h h c Z.[.W.K.#X#X#X#X#X#X#X",
"#X#X#X#X#X#X#X#XD D D D D D D D D D D D D D D D D D I D D D D D H M H H D D S 6 3.R.M.*   h D D D D D D f..X.X].K.#X#X#X#X#X#X#X",
"#X#X#X#X#X#X#X#XD D D D D D D D D D D D D D D D D D D D D D D D M H D D H M D 7._..X_.C o b D D D D D D f.|.}.E.K.#X#X#X#X#X#X#X",
"#X#X#X#X#X#X#X#XD D D D D D D D D D D D M 6 2 v D H D D D D D D D D D D H I S g..X.X|.u.f D D D D D 0.g.^.I.H.N.#X#X#X#X#X#X#X#X",
"#X#X#X#X#X#X#X#X#Xj j h h h h j h z S M 2 1 O o z D D H D D D D D D D D D D D a.!.].E.9.g m D D D J ^.XX.XR.A * #X#X#X#X#X#X#X#X",
"#X#X#X#X#X#X#X#X#XX < q q q q q 8 o h 2 0 { ~ 5 X z S D D D D D D D D D D D D J i.N.Y._.).g.H J 0.7.'..X}.I.> . #X#X#X#X#X#X#X#X",
"#X#X#X#X#X#X#X#X#X, u Y d Y Y Y a 8   # [ ;.;.[ 5 X j S D S D D D S H S S D S D b = D..X.X|.g.). X_.R.!.E.N.* #X#X#X#X#X#X#X#X#X",
"#X#X#X#X#X#X#X#X#X, p Y Y Y d Y Y w , 3 ! ;.-.;.~ 5   1 6 2 6 6 6 2 3 6 6 6 6 6 2 $ V.]..X!.Q..X.X|.N.5.5.;   #X#X#X#X#X#X#X#X#X",
"#X#X#X#X#X#X#X#X#Xt p Y Y d Y Y Y p p p U X.-.;.;.~ 5   X X X X X X X X X X X X   X 2.K.P.M.B.!.].E.9.      o #X#X#X#X#X#X#X#X#X",
"#X#X#X#X#X#X#XY Y Y Y s Y Y Y Y s Y Y Y Y ^ X.-.-.:.~ 3   X X X X X X X X X X X   X % > > * ; B.J.B.;   6 j j #X#X#X#X#X#X#X#X#X",
"#X#X#X#X#X#X#XY Y Y Y Y Y d Y Y Y Y Y Y Y Y Y X.-.;.-.r < X X X X X X X     1 5 5 X       o + h x *   + m H H #X#X#X#X#X#X#X#X#X",
"#X#X#X#X#X#X#X^ ^ ^ Y ^ Y Y Y Y Y d d d d Y Y ^ X.-.| Y a q X   X X X X X B } =.=.K 3   f n M S v f h n D D D #X#X#X#X#X#X#X#X#X",
"#X#X#X#X#X:.-.=.+.+.+.+. .Y Y Y ^ / ( ^ _ _ / Y Y ^ Y Y ^ i 1 O X X X X B -.;.;.-.:.! # @ m H D D D D D D D #X#X#X#X#X#X#X#X#X#X",
"#X#X#X#X#XO.O.O.O.-.-.-.-.^ s ( -.-.-.-.-.-.=./ s d ^ X.+.+.} { B o X # } ;.-.-.-.;.-.0   @ f h f h h h h h #X#X#X#X#X#X#X#X#X#X",
"#X#X#X#X#X^ / ^ ^ +.-.+. .^ s ` -.-.-.;.;.-.-._ s d ` -.-.O.O.O.[ 1 X 4 [ O.=.;.-.-.O.e X X X X X X X X X X #X#X#X#X#X#X#X#X#X#X",
"#X#X-.-.-.-.=.-.=.-.-./ Y Y Y Y `  . .|  . .| Y d d  .;.-._ ^ ^ U 0 3 8 p Y ) =.-.O.^ q X X o X X X X X o #X#X#X#X#X#X#X#X#X#X#X",
"#X#X-.-.-.-.;.-.-.;.+.^ Y ^ ^ Y Y Y Y Y Y Y U Y ^  .O.;.-.-.+.-.@.o.....+. .^ / / ^ Y #X#X#X#X#X#X#X#X#X#X#X#X#X#X#X#X#X#X#X#X#X",
"#X#X-.-.-.-.-.-.-.-.-.+.+.+.+.X.Y Y s Y Y Y d Y O.;.-.-.-.-.;.-.-.;.;.;.;.-.` d d Y #X#X#X#X#X#X#X#X#X#X#X#X#X#X#X#X#X#X#X#X#X#X",
"#X#X#X#X#X#X#X#X-.-.-.-.;.;.;.-./ Y Y Y Y Y Y Y +.-.-.-.-.-.-.-.-.-.;.-.;.-.X.#X#X#X#X#X#X#X#X#X#X#X#X#X#X#X#X#X#X#X#X#X#X#X#X#X",
"#X#X#X#X#X#X#X#X-.;.-.-.-.-.-.O.^ Y d Y Y Y Y Y | -.-.-.-.-.-.-.;.-.-.;.-.-.#X#X#X#X#X#X#X#X#X#X#X#X#X#X#X#X#X#X#X#X#X#X#X#X#X#X",
"#X#X#X#X#X#X#X#X#X#X#X#X#X#X#X#X#X#X#X#X#X#X#X#X#X#X#X#X#X#X#X#X#X#X#X#X#X#X#X#X#X#X#X#X#X#X#X#X#X#X#X#X#X#X#X#X#X#X#X#X#X#X#X#X",
"#X#X#X#X#X#X#X#X#X#X#X#X#X#X#X#X#X#X#X#X#X#X#X#X#X#X#X#X#X#X#X#X#X#X#X#X#X#X#X#X#X#X#X#X#X#X#X#X#X#X#X#X#X#X#X#X#X#X#X#X#X#X#X#X"
};
