/* XPM */
static char *result[] = {
/* columns rows colors chars-per-pixel */
"64 64 108 2 ",
"   c #010100",
".  c #090605",
"X  c #0A0807",
"o  c #0D0909",
"O  c #130D0C",
"+  c #16110D",
"@  c #19130E",
"#  c #1D1413",
"$  c #241B15",
"%  c #281D17",
"&  c #261A19",
"*  c #2B1D1D",
"=  c #2A211B",
"-  c #35271E",
";  c #37281F",
":  c #352323",
">  c #392626",
",  c #362B23",
"<  c #3A2B22",
"1  c #3D2929",
"2  c #3D3027",
"3  c #3E3028",
"4  c #452E2F",
"5  c #473428",
"6  c #4A362A",
"7  c #4F3C2F",
"8  c #503B2D",
"9  c #4E3535",
"0  c #4F3E33",
"q  c #503636",
"w  c #543F30",
"e  c #563939",
"r  c #5C3E3E",
"t  c #544236",
"y  c #594233",
"u  c #564438",
"i  c #5C4739",
"p  c #5C493B",
"a  c #604737",
"s  c #674C3A",
"d  c #694D3B",
"f  c #6C513F",
"g  c #5F4040",
"h  c #634242",
"j  c #6A4747",
"k  c #634E40",
"l  c #6C4949",
"z  c #724C4C",
"x  c #655041",
"c  c #6C5545",
"v  c #745642",
"b  c #7E5C47",
"n  c #745C4B",
"m  c #7F5E49",
"M  c #765050",
"N  c #7E5454",
"B  c #805E48",
"V  c #805757",
"C  c #855959",
"Z  c #8C5E5E",
"A  c #84614B",
"S  c #8C674F",
"D  c #836653",
"F  c #846855",
"G  c #8E6951",
"H  c #8A6C59",
"J  c #936C53",
"K  c #926F58",
"L  c #93735E",
"P  c #99745B",
"I  c #A67A5E",
"U  c #8F6060",
"Y  c #956464",
"T  c #986666",
"R  c #9E6C6C",
"E  c #947560",
"W  c #9A7963",
"Q  c #A16D6D",
"!  c #A07E66",
"~  c #A17F68",
"^  c #A57070",
"/  c #AB8064",
"(  c #A38069",
")  c #AB856C",
"_  c #AE886F",
"`  c #B58667",
"'  c #BA8A6A",
"]  c #AE8970",
"[  c #B18B72",
"{  c #BE967A",
"}  c #C18F6E",
"|  c #C4906F",
" . c #C59272",
".. c #CD9876",
"X. c #CC9A79",
"o. c #D09A77",
"O. c #D29D7B",
"+. c #D4A17F",
"@. c #C69C80",
"#. c #CB9F82",
"$. c #CCA184",
"%. c #D6A483",
"&. c #D9A685",
"*. c #DBA886",
"=. c #D3A688",
"-. c #D7A989",
";. c #D9AA8B",
":. c None",
/* pixels */
"                                                                                                  :.:.                          ",
"  . % = = = = = = = = = = = = = = = = % @   o # # $ # # # # # & # # $ # # # # # # o   # = = = = , ) ] , = = = = = = = = = $ .   ",
"  % { $.$.#.#.$.#.#.#.$.#.#.#.#.#.#.#...A   1 Y Y Y T Y Y Y Y Y Y Y Y Y Y T T Y C >   H $.$.$.$.$.;.;.$.$.#.$.$.#.#.#.$.X.` $   ",
"  = $.;.;.;.;.;.;.;.;.;.;.;.;.;.;.;.;.+.S   4 Q R Q Q R Q Q R Q Q Q Q R R Q Q T Z 1   E ;.;.;.;.;.;.;.;.;.;.;.;.;.;.;.;.%.| $   ",
"  = $.;.;.;.;.;.;.;.;.;.;.;.;.;.;.;.;.O.S   4 R R R Q R R R R Q R Q R Q R R R R U 1   L ;.;.;.;.;.;.;.;.;.;.;.;.;.;.;.;.%. .%   ",
"  = $.;.;.;.;.;.;.;.;.;.;.;.;.;.;.;.;.O.S   4 Q R Q R R Q R R R R R R R R R R R Z 1   E ;.;.;.;.;.;.;.;.;.;.;.;.;.;.;.;.%.' %   ",
"  = #.;.;.;.;.;.;.;.;.;.;.;.;.;.;.;.;.O.S   4 Q R R Q R R R R Q R R R R R R R R Z 1   W ;.;.;.;.;.;.;.;.;.;.;.;.;.;.;.;.%.} %   ",
"  = $.;.;.;.;.;.;.;.;.;.;.;.;.;.;.;.;.+.G   4 Q Q Q Q Q Q Q Q Q Q Q Q Q Q R R R Y 1   W ;.;.;.;.;.;.;.;.;.;.;.;.;.;.;.;.&. .$   ",
"  $ ( ] ] ] ] ] [ ] ] ] ] ] ] ] [ _ _ / v   > V N N V V N N N N V N N V N V V N z *   n ] ] ] ] ] _ _ [ ] ] _ [ ] ] [ _ ) P $   ",
"    X X X X o X o o X . X . X X X X X .       . . . . . . . o . o . . o . . o . .     o o o X X X o o X X X X . X X X . . .     ",
"  . & & & & & & o   = < < < < < < ; ; , < < < < < < , ; , . . & & & & & & & & * & * & & & * & & % #   O < < , ; < < < < < ; X   ",
"  # C U Z Y Z Z :   P O.X.X.X.X.X.X.X.X.X.X.X.X.X.X.X.X.` # + N U U U U U U U U U U U U U U U U U h   7 X.X.X.X.X.X.X.X...' $   ",
"  # T R R R T Z : . ( ;.;.;.;.;.;.;.;.;.;.=.;.;.;.;.;.%.` @ # Y Q R R R R Q R Q R R R R R Q Q R Y h   t ;.;.;.;.;.;.;.;.%.} %   ",
"  # T R Q R R Z = . ( ;.;.;.;.;.=.;.;.;.;.;.;.-.;.;.;.%.' # @ Y Q R Q R R R R R Q R R Q R R R R Y h   t -.;.-.;.-.;.;.;.%.| $   ",
"  # Y R R R T Z :   ~ ;.;.;.-.;.;.;.;.=.;.;.;.;.;.;.;.%.` # + Y Q R Q R R R R R R R Q R R R R R Y h   t ;.;.;.;.;.;.;.;.%.} %   ",
"  # T R Q Q T Z : . W ;.;.-.;.;.;.;.;.;.;.;.;.-.;.;.=.%.' # + Y R R R R R Q R Q R R R R Q R R Q Y h   t ;.;.;.;.=.;.;.;.%.} %   ",
"  # T Q Q Q R U :   ( ;.;.;.;.;.;.;.;.;.;.;.;.;.;.;.;.*.' $ # Y ^ Q ^ Q ^ Q Q Q R ^ R ^ R ^ Q Q T j   t ;.;.;.;.;.;.;.;.*.| =   ",
"  + l z z z z h &   n W W ( W W W ( W W ( W W ( W W W P A + O h l M l z l z z z z M l M z z z M j 4   < W W ( W W ( W W W S @   ",
"                        .       .                                                                           .   .               ",
"  o : : > : : > > : > : : : > : > : > > %   $ t 8 7 7 7 7 8 7 8 8 7 8 8 8 8 7 7 0 $   & > : : : : : > : : : : : : : > : > : X   ",
"  # U T T T Y Y T T Y T Y T T T Y Y Y U h   u %.+.+.+.+.+.+.+.%.%.+.+.+.O.+.+.O...y   h T Y Y Y Y T Y Y Y T Y Y Y Y Y Y Y C #   ",
"  # Y R R R R R Q R R R R R R Q Q R R Y i   i ;.;.;.=.;.;.;.;.;.;.;.=.;.;.;.;.=.o.y   l Q R Q Q R Q R R R Q R R Q Q R Q T C #   ",
"  # Y R R R R R R R R R R R R R Q R R Y g   p ;.;.=.;.;.;.;.;.;.;.;.;.;.;.;.;.-...y   l Q Q R R R Q R Q R R R Q R R R Q Y Z q O ",
"  # T Q R R R R Q R R R R R R R Q R R Y g   p ;.;.;.;.;.;.;.;.;.;.;.;.;.;.;.;.-.o.y   l Q R Q R R R R R R Q R R Q R R Q T Z C :.",
"  & Y R R Q R Q R R R R R R R R R Q R Y r   p ;.;.;.;.;.;.;.;.;.=.;.;.;.;.;.;.;.o.y   l Q Q R R R R R R Q R R R R R R R T Z :   ",
"  # T Q Q Q Q Q ^ Q Q ^ Q ^ ^ R Q Q Q Y h   p ;.;.;.;.;.;.;.;.;.;.;.;.;.;.;.;.;.O.y   l ^ Q Q Q Q ^ Q Q Q Q Q Q Q Q Q Q T C #   ",
"  O r g h g g h g h h g h g h h h h h e >   , F F F H H F F F F F F F F F F H F m -   4 h h h h h h h g h h h h h h h h g q o   ",
"                                                                                                                                ",
"  O i s s s s s $   : 4 4 4 4 4 4 4 4 4 4 9 4 9 5 4 4 4 1 o o i s s s s s s s s s s s s s s s s d 6   # 4 4 4 4 4 4 4 4 4 4 o   ",
"  * X.%.+.%.%...6   z T T T T T T Y T Y Y Y Y T T T T Y V O &  .+.%.+.+.%.+.%.%.$.%.+.%.%.O.%.%.+.J   > T Y T T T T T Y Y C #   ",
"  = $.;.;.;.%...6   M Q R Q R R R R R R R R Q R R R R T N O & @.;.;.;.;.-.;.;.;.;.-.-.;.;.;.;.;.O.J   4 Q R R R Q R Q R T C #   ",
"  = #.;.;.;.%.X.6   M ^ R R R R R Q R Q R R R R R R Q T N O $ @.;.;.;.;.;.;.;.;.;.;.;.;.;.;.;.;.+.J   1 Q R R Q R R R R T V #   ",
"  = %.;.;.;.&...6   M ^ Q R Q R R Q R R R R R R R R R T N O # @.;.;.;.;.;.;.;.;.;.;.;.;.;.;.;.;.+.J   4 R R Q R Q R R R T C #   ",
"  = $.;.;.;.%...6   M Q R R R R R R R R R R Q R R R R T N o = X.;.;.;.;.;.;.;.;.;.;.;.;.;.;.;.;.+.J   1 R Q R R R R R R T V #   ",
"  = $.;.;.;.&.X.6   M ^ Q Q Q Q ^ Q Q Q ^ Q Q Q R Q Q R N + $ #.;.;.;.;.;.;.;.;.;.;.;.;.;.;.;.;.+.J   1 Q Q Q Q ^ ^ R ^ T C #   ",
"  @ x c c c c s $   1 q q 9 q 9 q 9 q q q 9 9 9 q q 9 9 1 X O k c c c c n c c c c c c c c c n c d 6   $ q 9 q 9 9 9 q q 9 4 o   ",
"                                                                                                                                ",
"  @ v m B B b b m m b b B B B b m m m m w   & e e e e e e e e e e e e e e e e e e &   8 B B B B b m b B b b b b b b b b b v +   ",
"  = X.%.%.%.%.%.%.%.%.%.%.%.%.%.%.%.%.O.G   4 T T T T T T T T T Y T T T T T T Y U 1   P %.%.*.%.%.%.%.%.%.%.%.%.%.%.%.%.+. .%   ",
"  = #.;.;.;.-.-.-.;.;.;.-.;.-.;.;.;.;.O.S   4 Q R R R R R R R Q R Q R R R R R R U 1   L ;.;.;.;.;.;.-.;.;.;.-.;.;.;.;.;.%.} %   ",
"  = #.;.;.;.;.;.;.;.;.;.;.;.;.-.;.;.;.O.G   4 Q R R R R R R R R R R R R R R Q T Y 1   L ;.;.;.;.;.;.-.;.;.-.;.;.;.;.;.;.%.| %   ",
"  = $.;.;.;.;.;.-.;.-.;.;.-.;.;.;.;.;.O.G   4 Q Q R R Q R Q R R R Q R Q R R R R Z >   L ;.;.;.;.-.;.;.;.;.;.;.;.;.-.-.;.%.' %   ",
"  = #.;.;.;.;.;.;.;.;.;.;.;.;.-.;.;.-.O.S   4 R R R R R R Q R Q R R R R R Q R T Y >   L ;.;.;.;.;.;.-.;.;.;.;.;.;.-.;.;.%.} %   ",
"  = #.;.;.-.;.;.;.;.;.;.;.-.;.;.;.;.;.O.S   4 Q Q R R Q R R R R Q R Q R R R Q R Z 1   L ;.;.;.;.-.;.;.;.;.-.;.;.;.;.;.;.%.| $   ",
"  o w t t t t t t t t t t t t u t t t w ;   # 1 4 1 1 1 1 1 1 1 1 1 1 1 1 4 4 1 > O   < u u t t t t t t t t t t t t t t t 6 O   ",
"                                                                                                                                ",
"  O r h h h h h &   c J J J J J J J J J J J J J J J J J D O o g h h h h h h j h h h h h h h h h h 9   < J J J J J J J J J S @   ",
"  # Y T R T T U :   ! *.%.%.%.%.%.%.&.%.%.&.%.&.&.&.&.+.' # + H R T R T T T T T R T R T R T T R Y h   w &.&.%.%.&.%.&.%.+. .%   ",
"  # T R R R R Z :   ( ;.;.;.;.;.;.;.;.;.;.=.;.;.;.;.;.%.' @ # Y Q R R R Q R Q R R R R R R R Q R Y h   t ;.;.;.;.-.;.;.;.%.' =   ",
"  # Y Q R R T Z : . ( ;.;.;.;.;.=.;.;.;.;.;.;.;.;.=.;.%.` # @ U Q R Q R R R R Q R Q R Q Q R R R Y h   t ;.;.-.;.;.;.;.;.$. .%   ",
"  & Y Q R R T Z *   W ;.;.;.;.;.;.;.;.;.;.;.;.;.;.;.-.%.' @ + Y R R R Q R R Q Q Q R R R R R Q R Y h   t ;.;.;.;.-.-.;.-.-.' %   ",
"  # Y R R R R U : . ( ;.;.;.;.;.;.;.;.;.;.;.=.;.;.-.;.%.' # @ Y Q R R R R Q T Q R R R R Q R R Q Y h   t ;.;.;.;.;.;.;.;.%.| %   ",
"  # Y T R R T Z : . W ;.=.=.=.=.=.=.=.=.=.=.%.%.=.=.=.X.` # + U R R T R Q T Q Q R R R R R R T R Y g   t %.=.=.=.=.=.=.=.%.' $   ",
"  . * * * * * & o   = 3 3 2 2 2 3 3 1 2 2 2 1 5 2 2 2 2 - . . = * * * * * * * * * * * * * * = * & #   # 2 2 2 1 2 2 2 1 < ; X   ",
"    . . . .   . . . .   .     . .     .       X . . . . X X X X X . X X X X X X X       . .   . . . .     .   . .   .   .       ",
"  O j z z z z z z z z z z z z z z z z z 9   6 ! I I I I I I / P I I I I I I I I ! 5   9 z z z z z z z z z z z z z z z z z l +   ",
"  # Y T R T R T T T R T T T R T T R T Y g   p *.%.-.%.%.;.%.%.%.%.%.%.%.-.%.%.%.o.y   j R T T R T T R T R T R T T R T R Y C #   ",
"  # Y Q R R R R R Q R R Q Q R Q R R R Y g   p ;.;.;.;.=.;.;.;.;.;.;.;.;.;.;.;.-.X.y   l Q Q R Q Q R R R R R R R R R R Q T C #   ",
"  & T R R R R Q R R R R Q R R R R R R Y g   u ;.;.;.;.;.;.;.;.;.;.;.;.-.;.;.;.-.o.y   l Q R Q R Q Q R R R Q Q R R R Q R T C #   ",
":.N R R R Q R R Q R R Q R R R Q R R R Y g   p ;.;.;.;.;.;.;.;.;.;.;.;.;.;.;.;.%.o.y   l ^ R R R Q R Q R R R R R R R R R T V #   ",
":.V R Q Q Q Q Q R Q Q R Q R Q Q R Q R Y i   p ;.;.;.;.;.;.;.;.;.;.;.;.;.;.;.;.-.o.y   l Q Q Q R Q R Q Q R Q Q R Q Q Q Q T C #   ",
"  & U T Y Y Y Y Y Y Y T Y Y Y Y Y T Y Z r   u $.#.#.#.$.#.#.#.#.$.#.#.#.$.#.$.X. .8   h T Y Y T Y Y Y Y Y T Y Y Y Y Y Y U N #   ",
"  . # # # # # # # & # # & # # # # # # # O   O = = = = = = = = = = = = = = = = = $ O   O # & # # $ # # # # # $ # # # # # # #     ",
"                                                                                                                                "
};
